<?xml version="1.0" standalone="no"?><!DOCTYPE svg PUBLIC "-//W3C//DTD SVG 1.1//EN" "http://www.w3.org/Graphics/SVG/1.1/DTD/svg11.dtd"><svg t="1677743375403" class="icon" viewBox="0 0 1024 1024" version="1.1" xmlns="http://www.w3.org/2000/svg" p-id="9223" xmlns:xlink="http://www.w3.org/1999/xlink" width="200" height="200"><path d="M406.4 288h217.6C684.8 288 736 144 736 144c0-38.4 0-73.6-76.8-76.8-73.6 0-89.6 54.4-144 54.4S435.2 76.8 368 64C300.8 57.6 288 102.4 288 144c0 0 51.2 144 118.4 144z" opacity=".8" p-id="9224"></path><path d="M630.4 355.2h-233.6c-262.4 0-329.6 480-329.6 480-3.2 64 54.4 124.8 121.6 124.8h649.6c67.2 0 121.6-60.8 121.6-128 0 6.4-67.2-476.8-329.6-476.8z m25.6 281.6h-121.6v51.2h118.4v44.8h-118.4v96h-44.8v-96h-121.6v-44.8h118.4v-51.2h-112v-44.8h96l-96-105.6 32-28.8L512 576l99.2-118.4 32 28.8-89.6 105.6h99.2v44.8z" p-id="9225"></path></svg>