<?xml version="1.0" standalone="no"?><!DOCTYPE svg PUBLIC "-//W3C//DTD SVG 1.1//EN" "http://www.w3.org/Graphics/SVG/1.1/DTD/svg11.dtd"><svg t="1677743388852" class="icon" viewBox="0 0 1024 1024" version="1.1" xmlns="http://www.w3.org/2000/svg" p-id="9359" xmlns:xlink="http://www.w3.org/1999/xlink" width="200" height="200"><path d="M723.2 275.2l-44.8-134.4c-6.4-16-25.6-25.6-41.6-22.4l-492.8 160 579.2-3.2z" opacity=".8" p-id="9360"></path><path d="M784 668.8v32c0 19.2-19.2 28.8-35.2 16l-163.2-128c-9.6-9.6-9.6-25.6 0-32l163.2-128c12.8-9.6 35.2 0 35.2 16v32H960v-137.6c0-19.2-16-35.2-35.2-35.2H99.2c-19.2 3.2-35.2 19.2-35.2 38.4v464c0 19.2 16 35.2 35.2 35.2h825.6c19.2 0 35.2-16 35.2-35.2v-137.6h-176z" p-id="9361"></path><path d="M934.4 518.4h-182.4v-19.2c0-9.6-12.8-16-19.2-9.6l-99.2 76.8c-6.4 6.4-6.4 16 0 19.2l99.2 76.8c9.6 6.4 19.2 0 19.2-9.6v-19.2h182.4c6.4 0 12.8-6.4 12.8-12.8v-89.6c0-9.6-6.4-12.8-12.8-12.8z" opacity=".8" p-id="9362"></path></svg>