<?xml version="1.0" standalone="no"?><!DOCTYPE svg PUBLIC "-//W3C//DTD SVG 1.1//EN" "http://www.w3.org/Graphics/SVG/1.1/DTD/svg11.dtd"><svg t="1677743357331" class="icon" viewBox="0 0 1024 1024" version="1.1" xmlns="http://www.w3.org/2000/svg" p-id="9088" xmlns:xlink="http://www.w3.org/1999/xlink" width="200" height="200"><path d="M460.8 147.2c-201.6 22.4-368 185.6-393.6 387.2-16 124.8 19.2 240 86.4 329.6 6.4 9.6 19.2 16 32 16h649.6c12.8 0 25.6-6.4 32-16 57.6-76.8 89.6-172.8 89.6-272 3.2-265.6-227.2-476.8-496-444.8z m9.6 76.8c0-25.6 12.8-41.6 41.6-41.6 25.6 0 41.6 12.8 41.6 41.6v83.2c0 25.6-12.8 41.6-41.6 41.6-25.6 0-41.6-12.8-41.6-41.6V224zM268.8 595.2c0 28.8-12.8 41.6-41.6 41.6H144c-28.8 0-41.6-12.8-41.6-41.6s12.8-41.6 41.6-41.6H224c28.8 0 44.8 12.8 44.8 41.6z m70.4-176c-16 16-41.6 16-57.6 0L224 361.6c-16-16-16-41.6 0-57.6s41.6-16 57.6 0l57.6 57.6c16 16 16 41.6 0 57.6z m195.2 249.6l-6.4 3.2c-6.4 3.2-9.6 6.4-16 6.4-32 6.4-64-12.8-70.4-41.6l-54.4-214.4L544 576c3.2 3.2 6.4 6.4 9.6 12.8 19.2 28.8 9.6 64-19.2 80z m150.4-249.6c-16-16-16-41.6 0-57.6l57.6-57.6c16-16 41.6-16 57.6 0s16 41.6 0 57.6l-57.6 57.6c-16 16-41.6 16-57.6 0z m192 214.4h-80c-28.8 0-41.6-12.8-41.6-41.6s12.8-41.6 41.6-41.6h80c28.8 0 41.6 12.8 41.6 41.6s-12.8 41.6-41.6 41.6z" p-id="9089"></path></svg>