<svg class="icon" viewBox="0 0 1024 1024" xmlns="http://www.w3.org/2000/svg" width="200" height="200"><path d="M512 134.4c76.8 0 140.8 64 140.8 140.8h70.4C723.2 160 630.4 64 512 64s-211.2 96-211.2 211.2h70.4c0-76.8 64-140.8 140.8-140.8z"/><path d="M892.8 310.4c0-19.2-16-32-35.2-32H166.4c-19.2 0-35.2 12.8-35.2 32L89.6 921.6v3.2c0 19.2 16 35.2 35.2 35.2h777.6c19.2 0 35.2-19.2 32-38.4l-41.6-611.2zm-160 336C688 720 604.8 771.2 512 771.2c-89.6 0-172.8-48-220.8-124.8-3.2-6.4-6.4-12.8-6.4-19.2 0-19.2 16-35.2 35.2-35.2 12.8 0 25.6 6.4 32 19.2 35.2 57.6 96 89.6 160 89.6 67.2 0 128-35.2 160-89.6 9.6-16 32-22.4 48-12.8 19.2 9.6 22.4 32 12.8 48z" opacity=".8"/></svg>