<?xml version="1.0" encoding="utf-8"?>
<!-- Generator: Adobe Illustrator 19.0.0, SVG Export Plug-In . SVG Version: 6.00 Build 0)  -->
<svg version="1.1" id="图层_1" xmlns="http://www.w3.org/2000/svg" xmlns:xlink="http://www.w3.org/1999/xlink" x="0px" y="0px"
	 viewBox="0 0 32 32" style="enable-background:new 0 0 32 32;" xml:space="preserve">
<style type="text/css">
	.st0{fill:url(#SVGID_1_);}
</style>
<g>
	<linearGradient id="SVGID_1_" gradientUnits="userSpaceOnUse" x1="23.6691" y1="32.0542" x2="8.6905" y2="6.1104">
		<stop  offset="0" style="stop-color:#FF8F00"/>
		<stop  offset="1" style="stop-color:#FFC800"/>
	</linearGradient>
	<path class="st0" d="M29.6,11.4c-0.3-0.1-0.6-0.1-0.8,0.2l-3.2,3.9l-1.7-3c-0.1-0.2-0.3-0.3-0.5-0.3c-0.2,0-0.4,0.1-0.6,0.2
		L21,14.5l-2.6-4.9l1.1-0.7c0.2-0.1,0.3-0.3,0.3-0.6V4.6c0-0.3-0.1-0.4-0.3-0.6l-3.2-1.9c-0.2-0.1-0.4-0.1-0.6,0L12.5,4
		c-0.2,0.1-0.3,0.3-0.3,0.6v3.8c0,0.3,0.1,0.4,0.3,0.6l1.1,0.7L11,14.5l-1.8-2.1c-0.2-0.2-0.4-0.3-0.6-0.3c-0.2,0-0.4,0.1-0.5,0.3
		l-1.7,3l-3.2-3.9c-0.2-0.3-0.5-0.3-0.8-0.2c-0.3,0.2-0.4,0.4-0.4,0.8l2.9,14.1l-0.6,3.1c-0.1,0.2,0,0.4,0.1,0.5
		C4.5,29.9,4.7,30,4.9,30h22.2c0.2,0,0.4-0.1,0.5-0.3c0.1-0.1,0.2-0.3,0.1-0.5l-0.6-3.1L30,12.1C30.1,11.9,29.9,11.5,29.6,11.4z"/>
</g>
</svg>
