<svg class="icon" viewBox="0 0 1024 1024" xmlns="http://www.w3.org/2000/svg" width="200" height="200"><path d="M912 630.4H688c-38.4 57.6-102.4 92.8-176 92.8s-137.6-38.4-176-92.8H112c-25.6 0-48 22.4-48 48v236.8c0 22.4 22.4 44.8 48 44.8h803.2c25.6 0 48-22.4 48-48V675.2c-3.2-25.6-25.6-44.8-51.2-44.8z"/><path d="M393.6 588.8c25.6 41.6 70.4 64 118.4 64s92.8-22.4 118.4-64l22.4-32h236.8v-448c0-25.6-22.4-48-48-48H182.4c-25.6 3.2-48 25.6-48 51.2v448h236.8c3.2 0 22.4 28.8 22.4 28.8zm-22.4-169.6c0-25.6 22.4-48 48-48h41.6l16-83.2c-22.4-12.8-35.2-32-35.2-57.6 0-41.6 41.6-76.8 86.4-70.4 28.8 3.2 51.2 28.8 57.6 57.6 3.2 32-9.6 57.6-32 73.6l16 83.2h41.6c25.6 0 48 22.4 48 48v22.4c0 25.6-22.4 48-48 48H422.4c-25.6 0-48-22.4-48-48-3.2-3.2-3.2-25.6-3.2-25.6z" opacity=".8"/></svg>