<svg class="icon" viewBox="0 0 1027 1024" xmlns="http://www.w3.org/2000/svg" width="200.586" height="200"><path d="M512 64C265.6 64 64 265.6 64 512c0 124.8 51.2 240 137.6 320 3.2-12.8 9.6-22.4 19.2-28.8 12.8-9.6 28.8-19.2 44.8-25.6 16-6.4 35.2-12.8 54.4-16 16-3.2 35.2-9.6 48-19.2 9.6-6.4 19.2-12.8 25.6-19.2 6.4-9.6 9.6-12.8 12.8-19.2 3.2-6.4 3.2-12.8 3.2-19.2v-22.4c0-12.8-3.2-19.2-9.6-28.8-9.6-9.6-16-12.8-25.6-22.4-6.4-3.2-9.6-9.6-12.8-12.8l-9.6-19.2-9.6-25.6c-3.2 0-9.6-3.2-12.8-6.4-3.2-3.2-9.6-6.4-9.6-12.8-3.2-3.2-6.4-12.8-9.6-19.2-3.2-9.6-6.4-16-3.2-25.6 3.2-9.6 3.2-12.8 6.4-19.2s6.4-12.8 12.8-16c0-19.2 0-38.4 3.2-57.6 3.2-16 6.4-35.2 12.8-54.4 6.4-16 12.8-35.2 25.6-51.2s22.4-25.6 35.2-35.2 22.4-16 35.2-22.4 25.6-9.6 38.4-12.8c9.6-3.2 25.6-3.2 35.2-3.2 12.8 0 32 3.2 44.8 6.4 12.8 3.2 28.8 9.6 41.6 12.8 9.6 6.4 19.2 12.8 32 19.2 12.8 9.6 19.2 12.8 25.6 22.4 12.8 16 25.6 35.2 32 57.6 6.4 22.4 12.8 38.4 12.8 57.6 3.2 22.4 3.2 41.6 3.2 64 3.2 3.2 6.4 9.6 9.6 12.8 3.2 3.2 6.4 9.6 6.4 12.8v22.4c0 12.8-3.2 19.2-6.4 25.6-3.2 6.4-9.6 9.6-12.8 12.8-3.2 3.2-9.6 6.4-12.8 9.6l-9.6 25.6-9.6 19.2c-3.2 6.4-9.6 12.8-12.8 12.8-9.6 9.6-19.2 12.8-25.6 19.2-6.4 6.4-9.6 12.8-12.8 28.8-3.2 9.6-3.2 16-3.2 25.6 0 9.6 3.2 16 6.4 25.6 3.2 9.6 9.6 12.8 16 22.4 9.6 9.6 19.2 12.8 35.2 19.2 9.6 6.4 28.8 12.8 41.6 12.8 12.8 3.2 32 9.6 44.8 12.8s28.8 12.8 38.4 19.2c9.6 9.6 19.2 19.2 25.6 32 83.2-80 137.6-195.2 137.6-320C960 265.6 758.4 64 512 64z" fill="#4461EB"/><path d="M512 960c121.6 0 233.6-48 313.6-124.8-6.4-12.8-12.8-25.6-25.6-35.2-12.8-9.6-25.6-12.8-38.4-19.2-12.8-6.4-32-9.6-44.8-12.8-12.8-3.2-32-9.6-41.6-12.8-12.8-6.4-25.6-9.6-35.2-19.2-9.6-9.6-12.8-12.8-16-22.4-3.2-9.6-6.4-16-6.4-25.6s0-16 3.2-25.6c3.2-12.8 6.4-22.4 9.6-28.8s12.8-9.6 25.6-19.2c3.2-3.2 9.6-9.6 9.6-12.8l9.6-19.2 9.6-25.6c6.4-3.2 12.8-6.4 12.8-9.6l12.8-12.8c3.2-6.4 6.4-12.8 6.4-25.6v-22.4c0-6.4-3.2-9.6-6.4-12.8-3.2-3.2-6.4-9.6-9.6-9.6 0-22.4 0-41.6-3.2-64-3.2-19.2-9.6-35.2-12.8-57.6-6.4-19.2-16-38.4-32-57.6-3.2-12.8-12.8-19.2-22.4-28.8-12.8-9.6-22.4-12.8-35.2-19.2-12.8-6.4-28.8-9.6-41.6-12.8s-32-6.4-44.8-6.4c-12.8 0-25.6 0-35.2 3.2-16 3.2-25.6 6.4-38.4 12.8-12.8 6.4-25.6 9.6-35.2 22.4-12.8 12.8-22.4 19.2-35.2 35.2-9.6 12.8-19.2 32-25.6 51.2-6.4 16-9.6 35.2-9.6 54.4-3.2 19.2-3.2 38.4-3.2 57.6-6.4 6.4-9.6 9.6-9.6 16-3.2 6.4-3.2 9.6-6.4 19.2s0 12.8 3.2 25.6c3.2 9.6 6.4 16 9.6 19.2 3.2 6.4 9.6 9.6 9.6 12.8 3.2 3.2 9.6 6.4 12.8 6.4l9.6 25.6 9.6 19.2c3.2 6.4 6.4 9.6 12.8 12.8 9.6 9.6 16 12.8 25.6 22.4s9.6 16 9.6 28.8v22.4c0 6.4 0 12.8-3.2 19.2l-9.6 19.2c-6.4 6.4-12.8 12.8-25.6 19.2-12.8 9.6-32 16-48 19.2-16 3.2-35.2 12.8-54.4 16-16 6.4-32 12.8-44.8 25.6-9.6 9.6-16 16-19.2 32C278.4 912 390.4 960 512 960z" fill="#FFF"/></svg>