<?xml version="1.0" standalone="no"?><!DOCTYPE svg PUBLIC "-//W3C//DTD SVG 1.1//EN" "http://www.w3.org/Graphics/SVG/1.1/DTD/svg11.dtd"><svg t="1673425347488" class="icon" viewBox="0 0 1024 1024" version="1.1" xmlns="http://www.w3.org/2000/svg" p-id="4273" xmlns:xlink="http://www.w3.org/1999/xlink" width="200" height="200"><path d="M960 243.2v48H64V243.2c0-38.4 28.8-67.2 67.2-67.2h761.6c38.4 0 67.2 28.8 67.2 67.2z" opacity=".8" p-id="4274"></path><path d="M64 352v406.4c0 38.4 28.8 67.2 67.2 67.2h761.6c38.4 0 67.2-28.8 67.2-67.2V352H64z m809.6 380.8c-6.4 6.4-12.8 9.6-22.4 9.6h-172.8c-16 0-28.8-12.8-28.8-28.8 0-9.6 3.2-16 9.6-22.4 6.4-6.4 12.8-9.6 22.4-9.6h172.8c16 0 28.8 12.8 28.8 28.8 0 9.6-3.2 16-9.6 22.4z" p-id="4275"></path></svg>