<?xml version="1.0" standalone="no"?><!DOCTYPE svg PUBLIC "-//W3C//DTD SVG 1.1//EN" "http://www.w3.org/Graphics/SVG/1.1/DTD/svg11.dtd"><svg t="1673426314604" class="icon" viewBox="0 0 1024 1024" version="1.1" xmlns="http://www.w3.org/2000/svg" p-id="4167" xmlns:xlink="http://www.w3.org/1999/xlink" width="200" height="200"><path d="M86.4 816c-32 32-32 86.4 0 115.2 19.2 19.2 41.6 28.8 64 28.8s44.8-9.6 57.6-22.4l278.4-278.4-121.6-115.2-278.4 272zM777.6 307.2l121.6-64 64-121.6L902.4 64l-121.6 64-64 121.6-147.2 144 64 64 144-150.4z" opacity=".8" p-id="4168"></path><path d="M803.2 624h-12.8c-22.4 0-41.6 3.2-57.6 9.6L390.4 288c3.2-19.2 9.6-35.2 9.6-57.6v-12.8C396.8 131.2 320 64 233.6 64c-25.6 0-51.2 3.2-70.4 19.2l112 112c3.2 3.2 9.6 9.6 9.6 19.2 9.6 16 3.2 41.6-12.8 54.4-9.6 16-22.4 19.2-38.4 19.2-6.4 0-12.8 0-22.4-3.2-3.2-6.4-12.8-6.4-16-16L83.2 156.8c-9.6 22.4-19.2 51.2-19.2 73.6 0 89.6 67.2 160 156.8 166.4h12.8c22.4 0 41.6-3.2 57.6-9.6l345.6 345.6c-3.2 19.2-9.6 35.2-9.6 57.6v12.8c3.2 89.6 76.8 156.8 166.4 156.8 25.6 0 48-3.2 70.4-19.2l-112-112c-3.2-3.2-9.6-12.8-12.8-19.2-9.6-19.2-3.2-44.8 12.8-57.6 9.6-9.6 25.6-19.2 41.6-19.2 3.2 0 12.8 0 19.2 3.2 9.6 3.2 12.8 3.2 19.2 12.8l112 112c9.6-22.4 19.2-44.8 19.2-70.4-3.2-86.4-70.4-163.2-160-166.4z" p-id="4169"></path></svg>