<svg class="icon" viewBox="0 0 1024 1024" xmlns="http://www.w3.org/2000/svg" width="200" height="200"><path d="M944 220.8H80c-9.6 0-16-6.4-16-16v-32c0-9.6 6.4-16 16-16h864c9.6 0 16 6.4 16 16v32c0 9.6-6.4 16-16 16z" opacity=".8"/><path d="M195.2 777.6h630.4c35.2 0 64-32 64-67.2V220.8H131.2v492.8c0 35.2 28.8 64 64 64zm57.6-211.2L432 387.2c3.2-3.2 9.6-6.4 12.8-9.6h12.8c3.2 0 9.6 3.2 12.8 3.2l3.2 3.2c3.2 0 3.2 3.2 6.4 3.2L588.8 496l134.4-134.4c12.8-12.8 35.2-12.8 48 0 12.8 12.8 12.8 32 3.2 44.8l-3.2 3.2-156.8 156.8c-6.4 6.4-12.8 9.6-19.2 9.6H592c-9.6 0-16-3.2-22.4-9.6l-112-112-156.8 156.8c-12.8 12.8-35.2 12.8-48 0-12.8-12.8-12.8-32 0-44.8z"/><path d="M336 777.6 230.4 883.2c-3.2 3.2-3.2 9.6 0 12.8l32 32c3.2 3.2 9.6 3.2 12.8 0l150.4-150.4H336zm352 0h-89.6L748.8 928c3.2 3.2 9.6 3.2 12.8 0l32-32c3.2-3.2 3.2-9.6 0-12.8L688 777.6z" opacity=".8"/></svg>