<?xml version="1.0" standalone="no"?><!DOCTYPE svg PUBLIC "-//W3C//DTD SVG 1.1//EN" "http://www.w3.org/Graphics/SVG/1.1/DTD/svg11.dtd"><svg t="1673575576298" class="icon" viewBox="0 0 1024 1024" version="1.1" xmlns="http://www.w3.org/2000/svg" p-id="4167" xmlns:xlink="http://www.w3.org/1999/xlink" width="200" height="200"><path d="M867.2 448c-9.6-51.2-28.8-99.2-57.6-140.8l44.8-86.4-51.2-51.2-86.4 44.8c-41.6-28.8-89.6-48-137.6-57.6L550.4 64h-73.6L448 156.8c-51.2 9.6-99.2 28.8-137.6 57.6L220.8 169.6 169.6 220.8l44.8 86.4c-28.8 41.6-48 89.6-57.6 140.8l-92.8 25.6v73.6l92.8 28.8c9.6 51.2 28.8 99.2 57.6 140.8l-44.8 86.4 51.2 51.2 86.4-44.8c41.6 28.8 89.6 48 137.6 57.6l28.8 92.8h73.6l28.8-92.8c51.2-9.6 99.2-28.8 137.6-57.6l86.4 44.8 51.2-51.2-44.8-86.4c28.8-41.6 48-89.6 57.6-140.8l92.8-28.8v-73.6l-89.6-25.6zM512 748.8c-131.2 0-236.8-105.6-236.8-236.8s105.6-236.8 236.8-236.8c131.2 0 236.8 105.6 236.8 236.8 0 131.2-105.6 236.8-236.8 236.8z" p-id="4168"></path><path d="M512 512m-150.4 0a150.4 150.4 0 1 0 300.8 0 150.4 150.4 0 1 0-300.8 0Z" opacity=".8" p-id="4169"></path></svg>