<svg class="icon" viewBox="0 0 1024 1024" xmlns="http://www.w3.org/2000/svg" width="200" height="200"><path d="M288 288c0 121.6 102.4 224 224 224s224-102.4 224-224S636.8 64 512 64 288 166.4 288 288z" opacity=".8"/><path d="M915.2 924.8C918.4 944 902.4 960 880 960H140.8c-19.2 0-32-16-32-35.2 16-188.8 153.6-339.2 329.6-371.2 6.4 0 12.8 0 16 6.4 0 0 44.8 54.4 54.4 64v6.4l-67.2 179.2c0 3.2 0 6.4 3.2 9.6l70.4 99.2c3.2 3.2 6.4 3.2 6.4 0l70.4-99.2c3.2-3.2 3.2-6.4 3.2-9.6L528 630.4V624c9.6-12.8 54.4-64 54.4-64 3.2-6.4 9.6-6.4 16-6.4 166.4 35.2 304 185.6 316.8 371.2z"/></svg>